ply
format ascii 1.0
comment Created by Blender 2.70 (sub 0) - www.blender.org, source file: ''
element vertex 30
property float x
property float y
property float z
property float nx
property float ny
property float nz
element face 12
property list uchar uint vertex_indices
end_header
0.101977 1.173461 44.499409 -0.590198 0.801770 -0.093978
-1.498067 0.042707 44.900970 -0.590198 0.801770 -0.093978
-1.282373 0.430078 46.851208 -0.590198 0.801770 -0.093978
-0.101977 -1.173461 47.039165 0.590198 -0.801770 0.093978
-0.317672 -1.560833 45.088928 0.590198 -0.801770 0.093978
1.282372 -0.430078 44.687366 0.590198 -0.801770 0.093978
0.317671 1.560832 46.449646 0.800022 0.565378 -0.200782
1.498067 -0.042707 46.637600 0.800022 0.565378 -0.200782
1.282372 -0.430078 44.687366 0.800022 0.565378 -0.200782
0.101977 1.173461 44.499409 -0.107847 -0.193686 -0.975118
1.282372 -0.430078 44.687366 -0.107847 -0.193686 -0.975118
-0.317672 -1.560833 45.088928 -0.107847 -0.193686 -0.975118
-0.317672 -1.560833 45.088928 -0.800022 -0.565377 0.200781
-0.101977 -1.173461 47.039165 -0.800022 -0.565377 0.200781
-1.282373 0.430078 46.851208 -0.800022 -0.565377 0.200781
0.317671 1.560832 46.449646 0.107847 0.193686 0.975118
-1.282373 0.430078 46.851208 0.107847 0.193686 0.975118
-0.101977 -1.173461 47.039165 0.107847 0.193686 0.975118
0.317671 1.560832 46.449646 -0.590198 0.801770 -0.093978
1.498067 -0.042707 46.637600 0.590198 -0.801769 0.093979
-0.101977 -1.173461 47.039165 0.590198 -0.801769 0.093979
1.282372 -0.430078 44.687366 0.590198 -0.801769 0.093979
0.101977 1.173461 44.499409 0.800022 0.565377 -0.200781
0.317671 1.560832 46.449646 0.800022 0.565377 -0.200781
1.282372 -0.430078 44.687366 0.800022 0.565377 -0.200781
-1.498067 0.042707 44.900970 -0.107847 -0.193686 -0.975118
-1.498067 0.042707 44.900970 -0.800022 -0.565377 0.200781
1.498067 -0.042707 46.637600 0.107849 0.193685 0.975118
0.317671 1.560832 46.449646 0.107849 0.193685 0.975118
-0.101977 -1.173461 47.039165 0.107849 0.193685 0.975118
3 0 1 2
3 3 4 5
3 6 7 8
3 9 10 11
3 12 13 14
3 15 16 17
3 18 0 2
3 19 20 21
3 22 23 24
3 25 9 11
3 26 12 14
3 27 28 29
